<?xml version="1.0" encoding="UTF-8"?>
<svg id="Layer_2" data-name="Layer 2" xmlns="http://www.w3.org/2000/svg" viewBox="0 0 161.2 141.22">
  <defs>
    <style>
      .cls-1 {
        fill: #fff;
      }
    </style>
  </defs>
  <g id="Layer_1-2" data-name="Layer 1">
    <path class="cls-1" d="M160.37,132.06L85.89,3.05c-2.35-4.07-8.23-4.07-10.58,0L.83,132.06c-2.35,4.07.59,9.16,5.29,9.16h21.66c2.18,0,4.2-1.16,5.29-3.05l53.6-92.84c2.35-4.07,8.23-4.07,10.58,0l47.26,81.85c.7,1.22-.18,2.74-1.58,2.74h-66.26c-2.18,0-4.2,1.16-5.29,3.05l-4.76,8.25h88.46s0,0,0,0,0,0,0,0h0c4.7,0,7.64-5.09,5.29-9.16Z"/>
  </g>
</svg>